# xmcd
#
# Track frame offsets:
#	150
#	16929
#	35283
#	54613
#	71163
#
# Disc length: 1164 seconds
#
# Revision: 1
# Processed by: cddbd v1.5.2PL0 Copyright (c) Steve Scherf et al.
# Submitted via: audiograbber 1.83.01
#
DISCID=3c048a05
DTITLE=Chely Wright - Revival (EP)
DYEAR=2019
DGENRE=Country
TTITLE0=Say The Word (ft. Jeremy Lister)
TTITLE1=Revival
TTITLE2=I Will
TTITLE3=As Long As I'm Your Lover
TTITLE4=Just When I Need You
EXTD=
EXTT0=
EXTT1=
EXTT2=
EXTT3=
EXTT4=
PLAYORDER=
